<svg width="102" height="49" viewBox="0 0 102 49" fill="none" xmlns="http://www.w3.org/2000/svg">
<path d="M8.85456 42.0852C8.335 42.3246 7.54437 42.7403 7.54437 42.7403C7.54437 42.7403 8.80855 42.4733 9.61884 42.3035C10.6419 42.0892 11.2127 41.9547 12.2392 41.7576C13.4715 41.5211 14.1602 41.3651 15.4055 41.2117C16.4247 41.0862 17.0005 41.0489 18.0259 40.9934C19.9418 40.8895 21.022 40.9146 22.9391 40.9934C24.6055 41.0618 25.5387 41.1454 27.1972 41.3209C28.5226 41.4611 29.2575 41.6085 30.5819 41.7576C32.4961 41.9731 33.5751 42.0395 35.4951 42.1944C37.2423 42.3353 38.2212 42.429 39.9716 42.5219C44.6127 42.7683 47.2261 42.6264 51.8725 42.5219L52.0717 42.5174C54.4225 42.4646 55.7995 42.4337 58.2051 42.3035C59.7402 42.2205 61.3258 42.0634 62.1357 41.976C64.3547 41.7364 65.5951 41.6131 67.8132 41.3209C68.7937 41.1917 69.3499 41.053 70.3244 40.8842C71.3132 40.7128 71.8564 40.5583 72.8356 40.3383C74.6317 39.9347 75.6406 39.7136 77.4212 39.2464C78.7922 38.8867 79.5586 38.6747 80.9151 38.2638C81.8572 37.9784 82.4035 37.866 83.3171 37.4995C84.5206 37.0167 86.265 35.971 86.265 35.971L83.5355 36.626C83.5355 36.626 81.0976 37.2458 79.6049 37.4995C76.2809 38.0644 74.5343 38.2147 71.1978 38.7005C68.5601 39.0846 67.0779 39.2813 64.4285 39.574C61.6198 39.8843 60.043 40.0584 57.2224 40.2291C54.3696 40.4017 52.7645 40.3805 49.9072 40.4474C47.5624 40.5024 46.2477 40.5618 43.9022 40.5566C41.8125 40.552 40.6405 40.5249 38.5522 40.4474C36.2478 40.3619 34.9576 40.2678 32.6564 40.1199C31.4195 40.0404 30.7728 39.9869 29.4901 39.9015C28.1705 39.8137 27.3184 39.7106 25.9962 39.6832C23.609 39.6336 22.2644 39.5228 19.882 39.6832C18.3411 39.7869 17.4746 39.8645 15.9514 40.1199C15.0938 40.2637 14.6175 40.3717 13.7678 40.5566C12.6966 40.7897 12.0807 40.8727 11.0382 41.2117C10.1648 41.4958 9.68874 41.7008 8.85456 42.0852Z" fill="#81B23D"/>
<path d="M80.6967 38.8097C81.7312 38.4571 82.2938 38.2108 83.3171 37.8271L85.0214 37.188C85.0214 37.188 84.5011 37.8962 84.0814 38.2638C83.5202 38.7552 83.1085 38.9084 82.4436 39.2464C81.3492 39.8027 80.6754 39.9985 79.4957 40.3383C78.2823 40.6877 77.5748 40.7848 76.3294 40.9934C74.9732 41.2204 74.2064 41.3231 72.8356 41.4301C71.9418 41.4998 71.4389 41.5605 70.5427 41.5393C69.9444 41.5251 68.6866 41.4301 68.6866 41.4301C68.6866 41.4301 69.6787 41.2922 70.106 41.2117C71.1668 41.0118 71.7735 40.9684 72.8356 40.775C73.6911 40.6192 74.1686 40.5194 75.0192 40.3383C75.9601 40.1379 76.4896 40.0321 77.4212 39.7923C78.7145 39.4594 79.4326 39.2405 80.6967 38.8097Z" fill="#81B23D"/>
<path fill-rule="evenodd" clip-rule="evenodd" d="M8.19947 40.2291C6.8011 41.2394 6.125 43.0678 6.125 43.0678C6.125 43.0678 7.5809 42.1109 8.52702 41.6485C9.31072 41.2654 9.81283 41.1023 10.5838 40.8518C10.6597 40.8271 10.7382 40.8016 10.8199 40.775C11.7442 40.4733 12.272 40.3276 13.2219 40.1199C13.9679 39.9568 14.4901 39.8859 15.1097 39.8018C15.3661 39.767 15.639 39.7299 15.9514 39.6832C17.1859 39.4983 19.1177 39.2464 19.1177 39.2464C19.1177 39.2464 22.2448 39.1015 24.2493 39.0281C29.4396 38.838 33.3592 38.8539 37.4288 38.8705C40.6427 38.8836 43.9502 38.8971 48.0511 38.8097C51.3773 38.7389 53.2419 38.6878 56.5674 38.5913C57.7639 38.5566 58.7987 38.5351 59.7714 38.5149C61.9535 38.4695 63.8229 38.4306 66.503 38.2638C69.1076 38.1017 73.1631 37.7179 73.1631 37.7179C73.1631 37.7179 76.8342 37.4058 79.1681 37.0628C79.623 36.9959 80.027 36.9452 80.4064 36.8976C81.4557 36.7659 82.3155 36.6579 83.5355 36.2985C83.6318 36.2701 83.7205 36.2446 83.8043 36.2206L83.8049 36.2204C84.171 36.1153 84.4435 36.037 84.8456 35.8618C85.3354 35.6483 86.0466 35.2067 86.0466 35.2067C86.0466 35.2067 83.7789 35.0567 82.3344 34.8791C80.5325 34.6576 79.5217 34.506 77.7488 34.1149C76.1529 33.7628 75.2681 33.513 73.709 33.023C71.9332 32.4649 69.2325 31.3853 69.2325 31.3853C69.2325 31.3853 65.9563 30.2258 63.7734 29.8567C61.4157 29.4581 57.6592 29.3108 57.6592 29.3108C57.6592 29.3108 50.8337 28.9559 46.5226 29.5292C44.8894 29.7464 43.9705 29.8882 42.3736 30.2935C40.2204 30.8399 38.9366 31.3913 37.1104 32.1756C36.8074 32.3058 36.4895 32.4423 36.1502 32.5863C34.3985 33.3297 33.6385 33.7897 32.7846 34.3066C32.295 34.603 31.7745 34.918 31.0186 35.3159C30.1165 35.7907 28.5074 36.0288 28.5074 36.0288C26.9997 36.1458 23.5816 36.426 21.1922 36.7352C20.3657 36.8422 19.6286 36.9181 18.9358 36.9895C17.0119 37.1877 15.4295 37.3508 13.2219 38.0454C11.1817 38.6874 9.61144 39.209 8.19947 40.2291ZM69.7784 35.3159C69.7784 35.3159 68.9288 34.2299 68.2499 33.6781C67.3113 32.9152 66.5559 32.6464 65.5499 32.2883C65.3346 32.2117 65.1078 32.1309 64.8652 32.0404C63.702 31.6062 63.0241 31.4183 61.8081 31.1669C60.6103 30.9193 59.8222 30.8631 58.7622 30.7874C58.5205 30.7702 58.2647 30.7519 57.9867 30.7302C55.0905 30.5035 53.3059 30.5772 50.6605 30.6864C50.3162 30.7006 49.9574 30.7154 49.5797 30.7302C49.1688 30.7463 48.8068 30.7545 48.4671 30.7622C47.572 30.7824 46.8315 30.7991 45.7583 30.9486C44.6816 31.0985 44.0754 31.2009 43.0287 31.4945C42.2634 31.7091 41.807 31.8861 41.1342 32.1469C41.0423 32.1825 40.9464 32.2197 40.8451 32.2587L40.684 32.3208C39.961 32.5992 39.5079 32.7737 38.7706 33.1322C37.5671 33.7174 35.8227 34.8791 35.8227 34.8791H37.8971C38.0984 34.8791 38.1582 35.086 38.2147 35.2813L38.2172 35.2903C38.2197 35.2989 38.2222 35.3074 38.2247 35.3159C38.2726 35.4795 38.2726 35.5889 38.2247 35.7526C38.1648 35.9572 37.8971 36.1893 37.8971 36.1893C37.8971 36.1893 39.96 36.194 41.2818 36.1893C47.5509 36.167 51.066 36.0723 57.3316 35.8618C62.1943 35.6983 69.7784 35.3159 69.7784 35.3159ZM34.2941 35.7526C34.0921 35.8843 33.8574 36.1893 33.8574 36.1893H34.84C34.84 36.1893 34.588 35.9852 34.6217 35.8618C34.6621 35.7135 34.9492 35.3159 34.9492 35.3159C34.9492 35.3159 34.4864 35.6272 34.2941 35.7526Z" fill="#81B23D"/>
<path d="M50.4402 16.8885L52.8472 16.6545C52.992 17.4624 53.2845 18.0558 53.7247 18.4346C54.1704 18.8135 54.7694 19.0029 55.5215 19.0029C56.3183 19.0029 56.9172 18.8358 57.3184 18.5015C57.7251 18.1616 57.9285 17.766 57.9285 17.3147C57.9285 17.025 57.8421 16.7799 57.6694 16.5793C57.5022 16.3731 57.2069 16.1949 56.7835 16.0444C56.4938 15.9441 55.8335 15.7658 54.8028 15.5095C53.4767 15.1808 52.5463 14.7769 52.0114 14.2977C51.2593 13.6236 50.8832 12.8017 50.8832 11.8323C50.8832 11.2083 51.0587 10.626 51.4097 10.0856C51.7663 9.53957 52.2761 9.12449 52.9391 8.84033C53.6077 8.55618 54.4128 8.41411 55.3544 8.41411C56.8921 8.41411 58.0483 8.75119 58.8227 9.42535C59.6027 10.0995 60.0122 10.9993 60.0512 12.1248L57.5775 12.2334C57.4716 11.6039 57.2432 11.1526 56.8921 10.8795C56.5467 10.601 56.0258 10.4617 55.3293 10.4617C54.6106 10.4617 54.0478 10.6093 53.6411 10.9046C53.3792 11.094 53.2483 11.3476 53.2483 11.6651C53.2483 11.9549 53.3709 12.2028 53.616 12.4089C53.928 12.6708 54.6858 12.9438 55.8893 13.228C57.0927 13.5121 57.9814 13.8074 58.5553 14.1139C59.1347 14.4147 59.586 14.8298 59.9092 15.3591C60.2379 15.8828 60.4023 16.5319 60.4023 17.3064C60.4023 18.0084 60.2072 18.6659 59.8172 19.2787C59.4272 19.8916 58.8756 20.3485 58.1625 20.6494C57.4493 20.9446 56.5606 21.0923 55.4965 21.0923C53.9476 21.0923 52.758 20.7357 51.9278 20.0225C51.0977 19.3038 50.6018 18.2591 50.4402 16.8885ZM66.5366 11.9994V13.8715H64.932V17.4485C64.932 18.1728 64.9459 18.5962 64.9738 18.7188C65.0072 18.8358 65.0768 18.9333 65.1827 19.0113C65.2941 19.0893 65.4278 19.1283 65.5838 19.1283C65.8011 19.1283 66.1159 19.0531 66.5282 18.9027L66.7288 20.7246C66.1828 20.9586 65.5643 21.0756 64.8735 21.0756C64.45 21.0756 64.0684 21.0059 63.7285 20.8666C63.3886 20.7218 63.1379 20.5379 62.9763 20.3151C62.8203 20.0866 62.7117 19.7802 62.6504 19.3957C62.6003 19.1227 62.5752 18.5711 62.5752 17.741V13.8715H61.4971V11.9994H62.5752V10.236L64.932 8.86541V11.9994H66.5366ZM67.6231 16.3119C67.6231 15.5318 67.8153 14.7769 68.1997 14.047C68.5842 13.3171 69.1274 12.76 69.8294 12.3755C70.537 11.9911 71.3254 11.7989 72.1946 11.7989C73.5373 11.7989 74.6377 12.2362 75.4957 13.111C76.3538 13.9801 76.7828 15.0805 76.7828 16.4121C76.7828 17.7549 76.3482 18.8692 75.479 19.7551C74.6154 20.6354 73.5262 21.0756 72.2113 21.0756C71.3978 21.0756 70.6206 20.8917 69.8796 20.524C69.1441 20.1563 68.5842 19.6186 68.1997 18.911C67.8153 18.1978 67.6231 17.3315 67.6231 16.3119ZM70.03 16.4372C70.03 17.3175 70.2389 17.9917 70.6568 18.4597C71.0747 18.9277 71.59 19.1617 72.2029 19.1617C72.8158 19.1617 73.3284 18.9277 73.7407 18.4597C74.1585 17.9917 74.3675 17.312 74.3675 16.4205C74.3675 15.5513 74.1585 14.8827 73.7407 14.4147C73.3284 13.9467 72.8158 13.7127 72.2029 13.7127C71.59 13.7127 71.0747 13.9467 70.6568 14.4147C70.2389 14.8827 70.03 15.5569 70.03 16.4372ZM80.8779 20.875H78.5295V11.9994H80.7108V13.2614C81.0841 12.6652 81.4183 12.2724 81.7136 12.083C82.0145 11.8936 82.3544 11.7989 82.7332 11.7989C83.2681 11.7989 83.7835 11.9465 84.2794 12.2418L83.5523 14.2894C83.1567 14.0331 82.789 13.9049 82.4491 13.9049C82.1204 13.9049 81.8418 13.9969 81.6134 14.1807C81.3849 14.359 81.2038 14.6849 81.0701 15.1585C80.942 15.6321 80.8779 16.6239 80.8779 18.1338V20.875ZM90.4388 18.0502L92.7788 18.443C92.478 19.301 92.0016 19.9557 91.3497 20.407C90.7034 20.8527 89.8928 21.0756 88.9177 21.0756C87.3744 21.0756 86.2322 20.5713 85.4912 19.5629C84.9062 18.755 84.6137 17.7354 84.6137 16.5041C84.6137 15.0332 84.9981 13.8826 85.767 13.0525C86.5359 12.2167 87.5081 11.7989 88.6837 11.7989C90.0042 11.7989 91.0461 12.2362 91.8094 13.111C92.5727 13.9801 92.9376 15.3145 92.9042 17.1142H87.0206C87.0373 17.8106 87.2267 18.3538 87.5889 18.7439C87.9511 19.1283 88.4024 19.3205 88.9428 19.3205C89.3105 19.3205 89.6197 19.2202 89.8705 19.0197C90.1212 18.8191 90.3106 18.4959 90.4388 18.0502ZM90.5725 15.6767C90.5558 14.997 90.3803 14.4816 90.046 14.1306C89.7117 13.774 89.305 13.5957 88.8258 13.5957C88.3132 13.5957 87.8898 13.7823 87.5555 14.1556C87.2212 14.5289 87.0568 15.036 87.0624 15.6767H90.5725Z" fill="#C52917"/>
<path d="M13.8656 9.28957H18.0248V11.121C17.808 11.178 17.6539 11.2921 17.5626 11.4633C17.4714 11.6345 17.4257 11.9996 17.4257 12.5587V19.542H19.6337V12.5587C19.6337 11.9882 19.5823 11.6231 19.4796 11.4633C19.3883 11.2921 19.2229 11.178 18.9833 11.121V9.28957H23.2109V11.121C22.9713 11.178 22.8001 11.2921 22.6974 11.4633C22.6061 11.6345 22.5605 11.9996 22.5605 12.5587V18.4808C22.5605 18.7661 22.5719 18.9943 22.5947 19.1655C22.6176 19.3366 22.6518 19.4679 22.6974 19.5592C22.7545 19.639 22.8229 19.6961 22.9028 19.7303C22.9941 19.7645 23.0968 19.7988 23.2109 19.833V21.75H8.74791V19.833C8.96472 19.776 9.12447 19.679 9.22716 19.542C9.32986 19.4051 9.38121 19.0514 9.38121 18.4808V12.5587C9.38121 11.9996 9.32986 11.6345 9.22716 11.4633C9.12447 11.2921 8.96472 11.178 8.74791 11.121V9.28957H12.9413V11.121C12.7131 11.178 12.5477 11.2921 12.445 11.4633C12.3423 11.6231 12.2909 11.9882 12.2909 12.5587V19.542H14.4989V12.5587C14.4989 11.9996 14.4475 11.6345 14.3448 11.4633C14.2536 11.2921 14.0938 11.178 13.8656 11.121V9.28957ZM28.6416 21.75H24.9617V19.9015C25.1785 19.9015 25.3268 19.8387 25.4067 19.7132C25.498 19.5763 25.5436 19.3252 25.5436 18.9601V14.2532C25.5436 13.9223 25.498 13.6998 25.4067 13.5857C25.3268 13.4602 25.1785 13.3974 24.9617 13.3974V11.5489H28.6416V13.3974C28.4248 13.3974 28.2708 13.4602 28.1795 13.5857C28.0996 13.6998 28.0597 13.9223 28.0597 14.2532V16.6152L30.0109 14.7496C30.2277 14.5328 30.3703 14.3673 30.4388 14.2532C30.5073 14.1391 30.5415 14.0193 30.5415 13.8938C30.5415 13.5629 30.3646 13.3974 30.0109 13.3974V11.5489H33.6395V13.3974C33.4455 13.3974 33.3029 13.4602 33.2116 13.5857C33.1317 13.6998 33.0918 13.9223 33.0918 14.2532V18.9601C33.0918 19.3252 33.1317 19.5763 33.2116 19.7132C33.3029 19.8387 33.4455 19.9015 33.6395 19.9015V21.75H30.0109V19.9015C30.2049 19.9015 30.3418 19.8387 30.4217 19.7132C30.5016 19.5763 30.5415 19.3252 30.5415 18.9601V16.7008L28.6758 18.4124C28.4248 18.6406 28.2594 18.8118 28.1795 18.9259C28.0996 19.04 28.0597 19.1769 28.0597 19.3366C28.0597 19.7132 28.2537 19.9015 28.6416 19.9015V21.75ZM38.3433 17.3512V18.8232C38.3433 19.2568 38.3832 19.5477 38.4631 19.6961C38.5544 19.833 38.7084 19.9015 38.9252 19.9015V21.75H35.2453V19.9015C35.4621 19.9015 35.6104 19.8387 35.6903 19.7132C35.7816 19.5763 35.8272 19.3252 35.8272 18.9601V14.4415C35.8272 13.9851 35.7873 13.6998 35.7074 13.5857C35.6276 13.4602 35.4735 13.3974 35.2453 13.3974V11.5489H38.9252V13.3974C38.7084 13.3974 38.5544 13.4602 38.4631 13.5857C38.3832 13.6998 38.3433 13.9851 38.3433 14.4415V15.6054H40.6882V14.2532C40.6882 13.8881 40.6482 13.6541 40.5684 13.5515C40.4885 13.4488 40.3516 13.3974 40.1576 13.3974V11.5489H43.7862V13.3974C43.5808 13.3974 43.4381 13.4602 43.3583 13.5857C43.2784 13.7112 43.2385 13.9965 43.2385 14.4415V18.8232C43.2385 19.2454 43.2784 19.5306 43.3583 19.679C43.4381 19.8273 43.5808 19.9015 43.7862 19.9015V21.75H40.1576V19.9015C40.3516 19.9015 40.4885 19.833 40.5684 19.6961C40.6482 19.5477 40.6882 19.2568 40.6882 18.8232V17.3512H38.3433ZM47.3803 21.904C47.0608 21.904 46.804 21.8869 46.61 21.8527C46.4161 21.8185 46.262 21.75 46.1479 21.6473C46.0452 21.5332 45.9768 21.3792 45.9425 21.1852C45.9083 20.9798 45.8912 20.7116 45.8912 20.3807C45.8912 20.084 45.9083 19.8444 45.9425 19.6619C45.9768 19.4793 46.0452 19.3366 46.1479 19.234C46.262 19.1313 46.4161 19.0628 46.61 19.0286C46.804 18.9943 47.0608 18.9772 47.3803 18.9772C47.6998 18.9772 47.9565 18.9943 48.1505 19.0286C48.3445 19.0628 48.4928 19.1313 48.5955 19.234C48.7096 19.3366 48.7838 19.4793 48.818 19.6619C48.8522 19.8444 48.8694 20.084 48.8694 20.3807C48.8694 20.7116 48.8522 20.9798 48.818 21.1852C48.7838 21.3792 48.7096 21.5332 48.5955 21.6473C48.4928 21.75 48.3445 21.8185 48.1505 21.8527C47.9565 21.8869 47.6998 21.904 47.3803 21.904Z" fill="white"/>
<rect x="0.4375" y="0.4375" width="100.483" height="48.125" rx="4.5625" stroke="white" stroke-width="0.875"/>
</svg>
