<svg width="15" height="15" viewBox="0 0 15 15" fill="none" xmlns="http://www.w3.org/2000/svg">
<path d="M7.5 3.25C6.65943 3.25 5.83774 3.49926 5.13883 3.96625C4.43992 4.43325 3.89518 5.09701 3.57351 5.8736C3.25184 6.65018 3.16768 7.50471 3.33166 8.32913C3.49565 9.15355 3.90042 9.91083 4.4948 10.5052C5.08917 11.0996 5.84645 11.5044 6.67087 11.6683C7.49529 11.8323 8.34982 11.7482 9.1264 11.4265C9.90299 11.1048 10.5667 10.5601 11.0337 9.86117C11.5007 9.16226 11.75 8.34057 11.75 7.5C11.7483 6.37334 11.3 5.29329 10.5034 4.49662C9.70671 3.69995 8.62666 3.25165 7.5 3.25ZM7.5 10.75C6.85721 10.75 6.22886 10.5594 5.6944 10.2023C5.15994 9.84516 4.74338 9.33758 4.49739 8.74372C4.25141 8.14986 4.18705 7.49639 4.31245 6.86596C4.43785 6.23552 4.74738 5.65642 5.2019 5.2019C5.65642 4.74738 6.23552 4.43785 6.86596 4.31245C7.49639 4.18705 8.14986 4.25141 8.74372 4.49739C9.33758 4.74338 9.84516 5.15994 10.2023 5.6944C10.5594 6.22886 10.75 6.85721 10.75 7.5C10.75 8.36195 10.4076 9.1886 9.7981 9.7981C9.1886 10.4076 8.36195 10.75 7.5 10.75ZM7 1.75V0.5C7 0.367392 7.05268 0.240215 7.14645 0.146447C7.24021 0.0526784 7.36739 0 7.5 0C7.63261 0 7.75979 0.0526784 7.85355 0.146447C7.94732 0.240215 8 0.367392 8 0.5V1.75C8 1.88261 7.94732 2.00979 7.85355 2.10355C7.75979 2.19732 7.63261 2.25 7.5 2.25C7.36739 2.25 7.24021 2.19732 7.14645 2.10355C7.05268 2.00979 7 1.88261 7 1.75ZM2.19375 2.90625C2.13913 2.86142 2.09449 2.80565 2.06272 2.74253C2.03095 2.67941 2.01275 2.61034 2.00928 2.53976C2.00581 2.46918 2.01716 2.39865 2.0426 2.33272C2.06803 2.26679 2.10698 2.20692 2.15695 2.15695C2.20692 2.10698 2.26679 2.06803 2.33272 2.0426C2.39865 2.01716 2.46918 2.00581 2.53976 2.00928C2.61034 2.01275 2.67941 2.03095 2.74253 2.06272C2.80565 2.09449 2.86142 2.13913 2.90625 2.19375L3.7875 3.08125C3.88101 3.17498 3.93352 3.30198 3.93352 3.43438C3.93352 3.56677 3.88101 3.69377 3.7875 3.7875C3.69298 3.87951 3.56628 3.93099 3.43438 3.93099C3.30247 3.93099 3.17577 3.87951 3.08125 3.7875L2.19375 2.90625ZM1.75 8H0.5C0.367392 8 0.240215 7.94732 0.146447 7.85355C0.0526784 7.75979 0 7.63261 0 7.5C0 7.36739 0.0526784 7.24021 0.146447 7.14645C0.240215 7.05268 0.367392 7 0.5 7H1.75C1.88261 7 2.00979 7.05268 2.10355 7.14645C2.19732 7.24021 2.25 7.36739 2.25 7.5C2.25 7.63261 2.19732 7.75979 2.10355 7.85355C2.00979 7.94732 1.88261 8 1.75 8ZM3.7875 11.2125C3.88101 11.3062 3.93352 11.4332 3.93352 11.5656C3.93352 11.698 3.88101 11.825 3.7875 11.9187L2.90625 12.8062C2.81027 12.898 2.68277 12.9494 2.55 12.95C2.41748 12.9482 2.29041 12.8969 2.19375 12.8062C2.09986 12.7115 2.04719 12.5834 2.04719 12.45C2.04719 12.3166 2.09986 12.1885 2.19375 12.0938L3.08125 11.2125C3.17498 11.119 3.30198 11.0665 3.43438 11.0665C3.56677 11.0665 3.69377 11.119 3.7875 11.2125ZM8 13.25V14.5C8 14.6326 7.94732 14.7598 7.85355 14.8536C7.75979 14.9473 7.63261 15 7.5 15C7.36739 15 7.24021 14.9473 7.14645 14.8536C7.05268 14.7598 7 14.6326 7 14.5V13.25C7 13.1174 7.05268 12.9902 7.14645 12.8964C7.24021 12.8027 7.36739 12.75 7.5 12.75C7.63261 12.75 7.75979 12.8027 7.85355 12.8964C7.94732 12.9902 8 13.1174 8 13.25ZM12.8062 12.0938C12.9001 12.1885 12.9528 12.3166 12.9528 12.45C12.9528 12.5834 12.9001 12.7115 12.8062 12.8062C12.7096 12.8969 12.5825 12.9482 12.45 12.95C12.3172 12.9494 12.1897 12.898 12.0938 12.8062L11.2125 11.9187C11.1263 11.8236 11.08 11.699 11.0832 11.5707C11.0863 11.4424 11.1387 11.3202 11.2295 11.2295C11.3202 11.1387 11.4424 11.0863 11.5707 11.0832C11.699 11.08 11.8236 11.1263 11.9187 11.2125L12.8062 12.0938ZM15 7.5C15 7.63261 14.9473 7.75979 14.8536 7.85355C14.7598 7.94732 14.6326 8 14.5 8H13.25C13.1174 8 12.9902 7.94732 12.8964 7.85355C12.8027 7.75979 12.75 7.63261 12.75 7.5C12.75 7.36739 12.8027 7.24021 12.8964 7.14645C12.9902 7.05268 13.1174 7 13.25 7H14.5C14.6326 7 14.7598 7.05268 14.8536 7.14645C14.9473 7.24021 15 7.36739 15 7.5ZM11.2125 3.7875C11.119 3.69377 11.0665 3.56677 11.0665 3.43438C11.0665 3.30198 11.119 3.17498 11.2125 3.08125L12.0938 2.19375C12.1909 2.11402 12.3142 2.07327 12.4398 2.07944C12.5653 2.0856 12.684 2.13824 12.7729 2.22711C12.8618 2.31597 12.9144 2.43472 12.9206 2.56024C12.9267 2.68577 12.886 2.8091 12.8062 2.90625L11.9187 3.7875C11.8242 3.87951 11.6975 3.93099 11.5656 3.93099C11.4337 3.93099 11.307 3.87951 11.2125 3.7875Z" fill="black"/>
</svg>
