<svg width="26" height="17" viewBox="0 0 26 17" fill="none" xmlns="http://www.w3.org/2000/svg">
<path d="M0 2.33876C0 1.38314 0.655138 1.00592 1.46146 0.955621L5.21591 0.980769C5.44269 0.980769 5.64427 1.13166 5.71986 1.35799C6.57658 4.12426 7.63488 5.83432 8.89476 7.77071C8.97036 7.9216 9.09634 7.99704 9.22233 7.99704C9.32312 7.99704 9.42391 7.94675 9.49951 7.82101L9.5751 7.54438L9.6003 3.19379C9.6003 2.56509 9.29793 2.4645 8.59239 2.36391C8.31522 2.31361 8.13883 2.06213 8.13883 1.81065C8.13883 1.76036 8.13883 1.71006 8.16403 1.65976C8.5168 0.578402 9.62549 0.0251479 11.1877 0.0251479L12.5988 0C13.7579 0 14.8162 0.502959 14.8162 1.98669V7.69527C14.917 7.77071 15.0178 7.82101 15.1438 7.82101C15.3454 7.82101 15.5973 7.69527 15.7989 7.36834C17.1092 5.53254 18.5959 3.34467 18.7974 2.18787C18.7974 2.13757 18.8226 2.11243 18.8478 2.06213C19.125 1.50888 19.8305 1.13166 20.1329 1.03107C20.1833 1.00592 20.2589 0.980769 20.3597 0.980769H24.2653L24.5173 1.00592C24.8953 1.00592 25.1724 1.2574 25.2984 1.48373C25.5252 1.8358 25.4748 2.21302 25.5 2.36391V2.53994C25.122 4.8284 22.5015 7.39349 21.3928 9.05325C21.2416 9.25444 21.166 9.43047 21.166 9.60651C21.166 9.7574 21.2416 9.90828 21.3676 10.0592L25.0464 14.6864C25.248 14.963 25.3488 15.2899 25.3488 15.5666C25.3488 16.3965 24.5677 16.8743 23.8118 16.9497L23.3834 16.9749H19.5534C19.4778 16.9749 19.4274 17 19.3518 17C18.9234 17 18.5707 16.7737 18.3187 16.5222C17.5124 15.5414 16.7312 14.5355 15.9501 13.5547C15.7989 13.3536 15.7485 13.3284 15.5973 13.2278C15.4209 13.9571 15.2698 14.7115 15.0934 15.466L15.0178 15.8935C14.8918 16.3462 14.5642 16.824 13.9595 16.9497L13.6067 16.9749H11.1374C6.77816 16.9749 2.87253 10.7885 0.125988 3.06805C0.0503953 2.86686 0 2.59024 0 2.33876ZM15.1438 8.85207C14.4886 8.85207 13.7579 8.47485 13.7579 7.77071V1.98669C13.7579 1.30769 13.4555 1.05621 12.624 1.05621L11.1877 1.10651C10.3814 1.10651 9.92787 1.23225 9.5499 1.48373C10.1294 1.76036 10.6586 2.13757 10.6586 3.19379V7.61982C10.583 8.5 9.85227 9.0784 9.14674 9.0784C8.66798 9.0784 8.23962 8.80178 7.98765 8.34911C6.85376 6.63905 5.89625 5.02959 5.06472 2.71598L4.83794 2.06213L1.48666 2.03698C1.0331 2.03698 1.0835 2.06213 1.0835 2.28846C1.0835 2.43935 1.1087 2.64053 1.13389 2.76627L1.66304 4.17456C4.40959 11.2663 7.86166 15.9186 11.1374 15.9186H13.6571C14.0099 15.9186 13.9847 15.4911 14.0603 15.2396L14.539 13.0266C14.6398 12.8003 14.7154 12.5991 14.8918 12.4231C15.0934 12.2219 15.3202 12.1465 15.5469 12.1465C16.0257 12.1465 16.4792 12.5237 16.7816 12.8757L18.9234 15.5917C19.0998 15.8683 19.251 15.9186 19.3518 15.9186H23.5094C23.9125 15.9186 24.2653 15.7929 24.2653 15.5414C24.2653 15.466 24.2401 15.3654 24.1897 15.2899L20.5361 10.7382C20.2337 10.3609 20.1077 9.98373 20.1077 9.60651C20.1077 9.20414 20.2589 8.80178 20.5109 8.4497C21.5692 6.86538 23.837 4.60207 24.3661 2.74112L24.4417 2.4142C24.4165 2.28846 24.4165 2.18787 24.3913 2.06213H20.4353C20.1833 2.16272 19.9817 2.31361 19.8305 2.51479L19.6793 2.9926C19.0998 4.60207 17.5124 6.81509 16.3785 8.34911C16.0005 8.70118 15.5721 8.85207 15.1438 8.85207Z" fill="white"/>
</svg>
