<svg width="30" height="30" viewBox="0 0 30 30" fill="none" xmlns="http://www.w3.org/2000/svg">
<path d="M29.1617 17.925L25.4057 18.855L22.1816 17.16V12.84L25.4057 11.145L29.1617 12.075L30 9.18L27.1467 8.475L27.8882 5.82L24.777 5.04L23.7775 8.535L20.5535 10.23L16.604 8.07V4.68L19.3606 2.115L17.0715 0L14.9919 1.935L12.9124 0L10.6233 2.115L13.3799 4.68V8.07L9.34981 10.23L6.12574 8.535L5.19076 5.04L2.09565 5.82L2.8533 8.475L0 9.18L0.838259 12.075L4.59431 11.145L7.81838 12.84V17.175L4.59431 18.87L0.838259 17.94L0 20.835L2.8533 21.54L2.09565 24.18L5.20688 24.96L6.20634 21.465L9.43042 19.77L13.3799 21.93V25.32L10.6233 27.885L12.9124 30L14.9919 28.065L17.0715 30L19.3444 27.885L16.604 25.32V21.93L20.6341 19.755L23.8581 21.45L24.8576 24.945L27.8882 24.18L27.1306 21.525L29.9839 20.82L29.1617 17.925ZM10.9619 12.84L14.9919 10.665L19.022 12.84V17.16L14.9919 19.335L10.9619 17.16V12.84Z" fill="#000"/>
</svg>
