<svg width="30" height="30" viewBox="0 0 30 30" fill="none" xmlns="http://www.w3.org/2000/svg">
<path d="M15 7.5065C19.8 7.5065 23.67 10.8571 23.67 15.013C23.67 19.1688 19.8 22.5195 15 22.5195C10.2 22.5195 6.33 19.1429 6.33 15.013C6.33 10.8831 10.23 7.5065 15 7.5065ZM15 0L19.14 5.19481C17.88 4.72727 16.5 4.49351 15 4.49351C13.5 4.49351 12.15 4.72727 10.86 5.19481L15 0ZM0 7.5065L7.2 6.98701C6.18 7.79221 5.22 8.67533 4.5 9.76624C3.75 10.8571 3.3 12 3 13.1948L0 7.5065ZM0 22.5195L3.09 16.8831C3.33 18 3.81 19.1688 4.5 20.2597C5.25 21.3766 6.18 22.3117 7.2 23.0649L0 22.5195ZM30 7.5065L27 13.1948C26.7 12 26.22 10.8571 25.5 9.76624C24.78 8.67533 23.85 7.79221 22.8 6.96104L30 7.5065ZM30 22.5195L22.8 23.039C23.82 22.2857 24.75 21.3507 25.5 20.2597C26.22 19.1688 26.67 18 26.91 16.8831L30 22.5195ZM15 30L10.83 24.8571C12.12 25.2468 13.5 25.5065 15 25.5065C16.5 25.5065 17.85 25.2468 19.11 24.8571L15 30Z" fill="#FDF30C"/>
</svg>
