<svg width="28" height="32" viewBox="0 0 28 32" fill="none" xmlns="http://www.w3.org/2000/svg">
<path d="M14 8.00693C18.48 8.00693 22.092 11.581 22.092 16.0139C22.092 20.4468 18.48 24.0208 14 24.0208C9.52 24.0208 5.908 20.419 5.908 16.0139C5.908 11.6087 9.548 8.00693 14 8.00693ZM14 0L17.864 5.54113C16.688 5.04243 15.4 4.79307 14 4.79307C12.6 4.79307 11.34 5.04243 10.136 5.54113L14 0ZM0 8.00693L6.72 7.45281C5.768 8.31169 4.872 9.25368 4.2 10.4173C3.5 11.581 3.08 12.8 2.8 14.0745L0 8.00693ZM0 24.0208L2.884 18.0087C3.108 19.2 3.556 20.4468 4.2 21.6104C4.9 22.8017 5.768 23.7991 6.72 24.6026L0 24.0208ZM28 8.00693L25.2 14.0745C24.92 12.8 24.472 11.581 23.8 10.4173C23.128 9.25368 22.26 8.31169 21.28 7.42511L28 8.00693ZM28 24.0208L21.28 24.5749C22.232 23.7714 23.1 22.774 23.8 21.6104C24.472 20.4468 24.892 19.2 25.116 18.0087L28 24.0208ZM14 32L10.108 26.5143C11.312 26.9299 12.6 27.2069 14 27.2069C15.4 27.2069 16.66 26.9299 17.836 26.5143L14 32Z" fill="#FDF30C"/>
</svg>
