<svg width="48" height="26" viewBox="0 0 48 26" fill="none" xmlns="http://www.w3.org/2000/svg">
<path d="M32.9191 17.4629L36.5628 16.9877C36.7821 18.6283 37.2249 19.8334 37.8913 20.6028C38.566 21.3722 39.4727 21.7569 40.6114 21.7569C41.8175 21.7569 42.7242 21.4175 43.3315 20.7386C43.9472 20.0484 44.2551 19.245 44.2551 18.3285C44.2551 17.7401 44.1244 17.2423 43.8629 16.8349C43.6098 16.4163 43.1628 16.0542 42.5218 15.7487C42.0832 15.545 41.0837 15.1829 39.5233 14.6625C37.5159 13.9949 36.1074 13.1745 35.2977 12.2015C34.159 10.8324 33.5897 9.1634 33.5897 7.19461C33.5897 5.92733 33.8554 4.74493 34.3867 3.64738C34.9265 2.53852 35.6983 1.69556 36.702 1.11849C37.7141 0.541434 38.9329 0.252903 40.3584 0.252903C42.6863 0.252903 44.4364 0.937456 45.6088 2.30656C46.7897 3.67567 47.4096 5.50303 47.4686 7.78864L43.7237 8.00928C43.5635 6.73069 43.2176 5.81419 42.6863 5.25975C42.1633 4.69401 41.3747 4.41114 40.3204 4.41114C39.2324 4.41114 38.3805 4.71098 37.7648 5.31067C37.3683 5.69538 37.1701 6.21021 37.1701 6.85516C37.1701 7.44353 37.3557 7.94705 37.7268 8.3657C38.1991 8.8975 39.3462 9.45193 41.1681 10.029C42.9899 10.6061 44.3352 11.2057 45.204 11.8281C46.0812 12.4391 46.7643 13.282 47.2535 14.3569C47.7512 15.4206 48 16.7387 48 18.3115C48 19.7372 47.7048 21.0724 47.1144 22.317C46.524 23.5616 45.689 24.4895 44.6093 25.1005C43.5297 25.7002 42.1844 26 40.5734 26C38.2286 26 36.4279 25.2758 35.1711 23.8275C33.9144 22.3679 33.1637 20.2464 32.9191 17.4629Z" fill="#C52917"/>
<path d="M7.74731 0H14.0436V3.71926C13.7154 3.83512 13.4822 4.06685 13.344 4.41445C13.2058 4.76204 13.1367 5.50358 13.1367 6.63905V20.8209H16.4792V6.63905C16.4792 5.4804 16.4015 4.73887 16.246 4.41445C16.1078 4.06685 15.8574 3.83512 15.4946 3.71926V0H21.8946V3.71926C21.5318 3.83512 21.2727 4.06685 21.1173 4.41445C20.9791 4.76204 20.91 5.50358 20.91 6.63905V18.6658C20.91 19.2451 20.9272 19.7086 20.9618 20.0562C20.9963 20.4038 21.0482 20.6703 21.1173 20.8557C21.2036 21.0179 21.3073 21.1337 21.4282 21.2033C21.5664 21.2728 21.7218 21.3423 21.8946 21.4118V25.3049H0V21.4118C0.328203 21.2959 0.570036 21.099 0.725501 20.8209C0.880965 20.5428 0.958698 19.8245 0.958698 18.6658V6.63905C0.958698 5.50358 0.880965 4.76204 0.725501 4.41445C0.570036 4.06685 0.328203 3.83512 0 3.71926V0H6.34813V3.71926C6.00266 3.83512 5.75219 4.06685 5.59672 4.41445C5.44126 4.73887 5.36352 5.4804 5.36352 6.63905V20.8209H8.70601V6.63905C8.70601 5.50358 8.62828 4.76204 8.47281 4.41445C8.33462 4.06685 8.09279 3.83512 7.74731 3.71926V0Z" fill="white"/>
<path d="M27.5247 25.6177C27.041 25.6177 26.6524 25.5829 26.3587 25.5134C26.0651 25.4439 25.8319 25.3049 25.6591 25.0963C25.5037 24.8646 25.4 24.5517 25.3482 24.1578C25.2964 23.7407 25.2705 23.1961 25.2705 22.5241C25.2705 21.9216 25.2964 21.435 25.3482 21.0642C25.4 20.6934 25.5037 20.4038 25.6591 20.1952C25.8319 19.9867 26.0651 19.8476 26.3587 19.7781C26.6524 19.7086 27.041 19.6738 27.5247 19.6738C28.0084 19.6738 28.397 19.7086 28.6907 19.7781C28.9843 19.8476 29.2089 19.9867 29.3644 20.1952C29.5371 20.4038 29.6494 20.6934 29.7012 21.0642C29.753 21.435 29.7789 21.9216 29.7789 22.5241C29.7789 23.1961 29.753 23.7407 29.7012 24.1578C29.6494 24.5517 29.5371 24.8646 29.3644 25.0963C29.2089 25.3049 28.9843 25.4439 28.6907 25.5134C28.397 25.5829 28.0084 25.6177 27.5247 25.6177Z" fill="white"/>
</svg>
